<svg xmlns="http://www.w3.org/2000/svg" xmlns:xlink="http://www.w3.org/1999/xlink" width="640" zoomAndPan="magnify" viewBox="0 0 480 719.999996" height="960" preserveAspectRatio="xMidYMid meet" version="1.0"><defs><clipPath id="83111b5ca6"><path d="M 135.046875 597.40625 L 149.296875 597.40625 L 149.296875 688.15625 L 135.046875 688.15625 Z M 135.046875 597.40625 " clip-rule="nonzero"/></clipPath><clipPath id="483bd3c250"><path d="M 105.402344 306.1875 L 374.652344 306.1875 L 374.652344 620.4375 L 105.402344 620.4375 Z M 105.402344 306.1875 " clip-rule="nonzero"/></clipPath><clipPath id="562367f737"><path d="M 106.113281 591.925781 L 123.363281 591.925781 L 123.363281 703.675781 L 106.113281 703.675781 Z M 106.113281 591.925781 " clip-rule="nonzero"/></clipPath><clipPath id="53c68162e0"><path d="M 328.75 597.40625 L 343 597.40625 L 343 688.15625 L 328.75 688.15625 Z M 328.75 597.40625 " clip-rule="nonzero"/></clipPath><clipPath id="044bf7097d"><path d="M 357.402344 591.925781 L 374.652344 591.925781 L 374.652344 703.675781 L 357.402344 703.675781 Z M 357.402344 591.925781 " clip-rule="nonzero"/></clipPath><clipPath id="553e1918ad"><path d="M 136.660156 345.855469 L 341.660156 345.855469 L 341.660156 383.746094 L 136.660156 383.746094 Z M 136.660156 345.855469 " clip-rule="nonzero"/></clipPath><clipPath id="2959a0488e"><path d="M 145.660156 345.855469 L 332.585938 345.855469 C 334.972656 345.855469 337.261719 346.804688 338.953125 348.492188 C 340.640625 350.179688 341.585938 352.46875 341.585938 354.855469 L 341.585938 374.746094 C 341.585938 377.132812 340.640625 379.421875 338.953125 381.113281 C 337.261719 382.800781 334.972656 383.746094 332.585938 383.746094 L 145.660156 383.746094 C 143.273438 383.746094 140.984375 382.800781 139.296875 381.113281 C 137.609375 379.421875 136.660156 377.132812 136.660156 374.746094 L 136.660156 354.855469 C 136.660156 352.46875 137.609375 350.179688 139.296875 348.492188 C 140.984375 346.804688 143.273438 345.855469 145.660156 345.855469 Z M 145.660156 345.855469 " clip-rule="nonzero"/></clipPath><clipPath id="6303452b98"><path d="M 136.660156 448 L 342 448 L 342 597.402344 L 136.660156 597.402344 Z M 136.660156 448 " clip-rule="nonzero"/></clipPath><clipPath id="8fc7cf3d76"><path d="M 137.410156 448 L 340.835938 448 C 341.035156 448 341.226562 448.078125 341.367188 448.21875 C 341.507812 448.359375 341.585938 448.550781 341.585938 448.75 L 341.585938 596.652344 C 341.585938 596.851562 341.507812 597.042969 341.367188 597.183594 C 341.226562 597.324219 341.035156 597.402344 340.835938 597.402344 L 137.410156 597.402344 C 137.210938 597.402344 137.019531 597.324219 136.878906 597.183594 C 136.738281 597.042969 136.660156 596.851562 136.660156 596.652344 L 136.660156 448.75 C 136.660156 448.550781 136.738281 448.359375 136.878906 448.21875 C 137.019531 448.078125 137.210938 448 137.410156 448 Z M 137.410156 448 " clip-rule="nonzero"/></clipPath><clipPath id="261bf33687"><path d="M 136.660156 448 L 341.410156 448 L 341.410156 597.25 L 136.660156 597.25 Z M 136.660156 448 " clip-rule="nonzero"/></clipPath><clipPath id="446dffb362"><path d="M 137.410156 448 L 340.835938 448 C 341.035156 448 341.222656 448.078125 341.363281 448.21875 C 341.503906 448.359375 341.585938 448.550781 341.585938 448.75 L 341.585938 596.652344 C 341.585938 596.851562 341.503906 597.042969 341.363281 597.183594 C 341.222656 597.324219 341.035156 597.402344 340.835938 597.402344 L 137.410156 597.402344 C 137.210938 597.402344 137.019531 597.324219 136.878906 597.183594 C 136.738281 597.042969 136.660156 596.851562 136.660156 596.652344 L 136.660156 448.75 C 136.660156 448.550781 136.738281 448.359375 136.878906 448.21875 C 137.019531 448.078125 137.210938 448 137.410156 448 Z M 137.410156 448 " clip-rule="nonzero"/></clipPath><clipPath id="ce1f776052"><path d="M 149.308594 462.683594 L 329 462.683594 L 329 582.71875 L 149.308594 582.71875 Z M 149.308594 462.683594 " clip-rule="nonzero"/></clipPath><clipPath id="2218980d0d"><path d="M 150.058594 462.683594 L 328.191406 462.683594 C 328.390625 462.683594 328.578125 462.765625 328.71875 462.90625 C 328.859375 463.046875 328.941406 463.234375 328.941406 463.433594 L 328.941406 581.96875 C 328.941406 582.167969 328.859375 582.359375 328.71875 582.5 C 328.578125 582.640625 328.390625 582.71875 328.191406 582.71875 L 150.058594 582.71875 C 149.859375 582.71875 149.667969 582.640625 149.527344 582.5 C 149.386719 582.359375 149.308594 582.167969 149.308594 581.96875 L 149.308594 463.433594 C 149.308594 463.234375 149.386719 463.046875 149.527344 462.90625 C 149.667969 462.765625 149.859375 462.683594 150.058594 462.683594 Z M 150.058594 462.683594 " clip-rule="nonzero"/></clipPath><clipPath id="64379ec136"><path d="M 149.308594 462.683594 L 329 462.683594 L 329 582.683594 L 149.308594 582.683594 Z M 149.308594 462.683594 " clip-rule="nonzero"/></clipPath><clipPath id="1c63df9174"><path d="M 150.058594 462.683594 L 328.179688 462.683594 C 328.378906 462.683594 328.566406 462.765625 328.707031 462.90625 C 328.847656 463.046875 328.929688 463.234375 328.929688 463.433594 L 328.929688 581.957031 C 328.929688 582.15625 328.847656 582.347656 328.707031 582.488281 C 328.566406 582.628906 328.378906 582.707031 328.179688 582.707031 L 150.058594 582.707031 C 149.863281 582.707031 149.671875 582.628906 149.53125 582.488281 C 149.390625 582.347656 149.308594 582.15625 149.308594 581.957031 L 149.308594 463.433594 C 149.308594 463.234375 149.390625 463.046875 149.53125 462.90625 C 149.671875 462.765625 149.863281 462.683594 150.058594 462.683594 Z M 150.058594 462.683594 " clip-rule="nonzero"/></clipPath></defs><g clip-path="url(#83111b5ca6)"><path fill="#c10016" d="M 149.300781 603.132812 L 149.300781 682.703125 C 149.300781 683.074219 149.261719 683.445312 149.191406 683.8125 C 149.117188 684.179688 149.007812 684.535156 148.863281 684.882812 C 148.722656 685.226562 148.546875 685.558594 148.339844 685.867188 C 148.128906 686.179688 147.894531 686.46875 147.628906 686.730469 C 147.363281 686.996094 147.078125 687.234375 146.765625 687.441406 C 146.453125 687.648438 146.125 687.824219 145.78125 687.96875 C 145.433594 688.109375 145.078125 688.21875 144.710938 688.292969 C 144.34375 688.363281 143.972656 688.402344 143.597656 688.402344 L 140.9375 688.402344 C 140.5625 688.402344 140.191406 688.363281 139.824219 688.292969 C 139.457031 688.21875 139.101562 688.109375 138.753906 687.96875 C 138.410156 687.824219 138.082031 687.648438 137.769531 687.441406 C 137.457031 687.234375 137.167969 686.996094 136.90625 686.730469 C 136.640625 686.46875 136.402344 686.179688 136.195312 685.867188 C 135.988281 685.558594 135.8125 685.226562 135.667969 684.882812 C 135.527344 684.535156 135.417969 684.179688 135.34375 683.8125 C 135.273438 683.445312 135.234375 683.074219 135.234375 682.703125 L 135.234375 603.132812 C 135.234375 602.757812 135.273438 602.386719 135.34375 602.019531 C 135.417969 601.652344 135.527344 601.296875 135.667969 600.949219 C 135.8125 600.605469 135.988281 600.277344 136.195312 599.964844 C 136.402344 599.652344 136.640625 599.367188 136.90625 599.101562 C 137.167969 598.835938 137.457031 598.601562 137.769531 598.390625 C 138.082031 598.183594 138.410156 598.007812 138.753906 597.863281 C 139.101562 597.722656 139.457031 597.613281 139.824219 597.539062 C 140.191406 597.46875 140.5625 597.429688 140.9375 597.429688 L 143.597656 597.429688 C 143.972656 597.429688 144.34375 597.46875 144.710938 597.539062 C 145.078125 597.613281 145.433594 597.722656 145.78125 597.863281 C 146.125 598.007812 146.453125 598.183594 146.765625 598.390625 C 147.078125 598.601562 147.363281 598.835938 147.628906 599.101562 C 147.894531 599.367188 148.128906 599.652344 148.339844 599.964844 C 148.546875 600.277344 148.722656 600.605469 148.863281 600.949219 C 149.007812 601.296875 149.117188 601.652344 149.191406 602.019531 C 149.261719 602.386719 149.300781 602.757812 149.300781 603.132812 Z M 149.300781 603.132812 " fill-opacity="1" fill-rule="nonzero"/></g><g clip-path="url(#483bd3c250)"><path fill="#c10016" d="M 374.652344 589.070312 L 374.652344 373.625 C 374.652344 335.921875 345.027344 306.296875 307.324219 306.296875 L 172.671875 306.296875 C 134.96875 306.296875 105.34375 335.921875 105.34375 373.625 L 105.34375 589.070312 C 105.34375 626.773438 134.96875 656.398438 172.671875 656.398438 L 307.324219 656.398438 C 345.027344 656.398438 374.652344 626.773438 374.652344 589.070312 Z M 374.652344 589.070312 " fill-opacity="1" fill-rule="nonzero"/></g><g clip-path="url(#562367f737)"><path fill="#c10016" d="M 123.363281 598.9375 L 123.363281 696.414062 C 123.363281 696.871094 123.320312 697.324219 123.230469 697.773438 C 123.140625 698.222656 123.007812 698.660156 122.832031 699.085938 C 122.65625 699.507812 122.441406 699.910156 122.1875 700.292969 C 121.929688 700.671875 121.640625 701.027344 121.316406 701.351562 C 120.992188 701.675781 120.640625 701.964844 120.261719 702.21875 C 119.878906 702.472656 119.476562 702.6875 119.050781 702.863281 C 118.628906 703.039062 118.191406 703.171875 117.742188 703.261719 C 117.292969 703.351562 116.839844 703.394531 116.378906 703.394531 L 113.117188 703.394531 C 112.660156 703.394531 112.207031 703.351562 111.757812 703.261719 C 111.304688 703.171875 110.871094 703.039062 110.445312 702.863281 C 110.023438 702.6875 109.621094 702.472656 109.238281 702.21875 C 108.859375 701.964844 108.503906 701.675781 108.179688 701.351562 C 107.855469 701.027344 107.566406 700.671875 107.3125 700.292969 C 107.058594 699.910156 106.84375 699.507812 106.667969 699.085938 C 106.492188 698.660156 106.359375 698.222656 106.269531 697.773438 C 106.179688 697.324219 106.136719 696.871094 106.136719 696.414062 L 106.136719 598.9375 C 106.136719 598.480469 106.179688 598.027344 106.269531 597.578125 C 106.359375 597.128906 106.492188 596.691406 106.667969 596.265625 C 106.84375 595.84375 107.058594 595.441406 107.3125 595.058594 C 107.566406 594.679688 107.855469 594.324219 108.179688 594 C 108.503906 593.675781 108.859375 593.386719 109.238281 593.132812 C 109.621094 592.878906 110.023438 592.664062 110.445312 592.488281 C 110.871094 592.3125 111.304688 592.179688 111.757812 592.089844 C 112.207031 592 112.660156 591.957031 113.117188 591.957031 L 116.378906 591.957031 C 116.839844 591.957031 117.292969 592 117.742188 592.089844 C 118.191406 592.179688 118.628906 592.3125 119.050781 592.488281 C 119.476562 592.664062 119.878906 592.878906 120.261719 593.132812 C 120.640625 593.386719 120.992188 593.675781 121.316406 594 C 121.640625 594.324219 121.929688 594.679688 122.1875 595.058594 C 122.441406 595.441406 122.65625 595.84375 122.832031 596.265625 C 123.007812 596.691406 123.140625 597.128906 123.230469 597.578125 C 123.320312 598.027344 123.363281 598.480469 123.363281 598.9375 Z M 123.363281 598.9375 " fill-opacity="1" fill-rule="nonzero"/></g><g clip-path="url(#53c68162e0)"><path fill="#c10016" d="M 343 603.132812 L 343 682.703125 C 343 683.074219 342.964844 683.445312 342.890625 683.8125 C 342.816406 684.179688 342.710938 684.535156 342.566406 684.882812 C 342.421875 685.226562 342.246094 685.558594 342.039062 685.867188 C 341.832031 686.179688 341.597656 686.46875 341.332031 686.730469 C 341.066406 686.996094 340.777344 687.234375 340.46875 687.441406 C 340.15625 687.648438 339.828125 687.824219 339.480469 687.96875 C 339.136719 688.109375 338.78125 688.21875 338.414062 688.292969 C 338.046875 688.363281 337.675781 688.402344 337.300781 688.402344 L 334.636719 688.402344 C 334.261719 688.402344 333.890625 688.363281 333.527344 688.292969 C 333.160156 688.21875 332.800781 688.109375 332.457031 687.96875 C 332.109375 687.824219 331.78125 687.648438 331.46875 687.441406 C 331.160156 687.234375 330.871094 686.996094 330.605469 686.730469 C 330.34375 686.46875 330.105469 686.179688 329.898438 685.867188 C 329.691406 685.558594 329.515625 685.226562 329.371094 684.882812 C 329.226562 684.535156 329.121094 684.179688 329.046875 683.8125 C 328.972656 683.445312 328.9375 683.074219 328.9375 682.703125 L 328.9375 603.132812 C 328.9375 602.757812 328.972656 602.386719 329.046875 602.019531 C 329.121094 601.652344 329.226562 601.296875 329.371094 600.949219 C 329.515625 600.605469 329.691406 600.277344 329.898438 599.964844 C 330.105469 599.652344 330.34375 599.367188 330.605469 599.101562 C 330.871094 598.835938 331.160156 598.601562 331.46875 598.390625 C 331.78125 598.183594 332.109375 598.007812 332.457031 597.863281 C 332.800781 597.722656 333.160156 597.613281 333.527344 597.539062 C 333.890625 597.46875 334.261719 597.429688 334.636719 597.429688 L 337.300781 597.429688 C 337.675781 597.429688 338.046875 597.46875 338.414062 597.539062 C 338.78125 597.613281 339.136719 597.722656 339.480469 597.863281 C 339.828125 598.007812 340.15625 598.183594 340.46875 598.390625 C 340.777344 598.601562 341.066406 598.835938 341.332031 599.101562 C 341.597656 599.367188 341.832031 599.652344 342.039062 599.964844 C 342.246094 600.277344 342.421875 600.605469 342.566406 600.949219 C 342.710938 601.296875 342.816406 601.652344 342.890625 602.019531 C 342.964844 602.386719 343 602.757812 343 603.132812 Z M 343 603.132812 " fill-opacity="1" fill-rule="nonzero"/></g><g clip-path="url(#044bf7097d)"><path fill="#c10016" d="M 374.652344 598.9375 L 374.652344 696.414062 C 374.652344 696.871094 374.605469 697.324219 374.515625 697.773438 C 374.425781 698.222656 374.296875 698.660156 374.121094 699.085938 C 373.945312 699.507812 373.730469 699.910156 373.472656 700.292969 C 373.21875 700.671875 372.929688 701.027344 372.605469 701.351562 C 372.28125 701.675781 371.929688 701.964844 371.546875 702.21875 C 371.167969 702.472656 370.765625 702.6875 370.339844 702.863281 C 369.917969 703.039062 369.480469 703.171875 369.03125 703.261719 C 368.582031 703.351562 368.128906 703.394531 367.667969 703.394531 L 364.40625 703.394531 C 363.949219 703.394531 363.492188 703.351562 363.042969 703.261719 C 362.59375 703.171875 362.15625 703.039062 361.734375 702.863281 C 361.3125 702.6875 360.90625 702.472656 360.527344 702.21875 C 360.144531 701.964844 359.792969 701.675781 359.46875 701.351562 C 359.144531 701.027344 358.855469 700.671875 358.601562 700.292969 C 358.34375 699.910156 358.128906 699.507812 357.957031 699.085938 C 357.78125 698.660156 357.648438 698.222656 357.558594 697.773438 C 357.46875 697.324219 357.421875 696.871094 357.421875 696.414062 L 357.421875 598.9375 C 357.421875 598.480469 357.46875 598.027344 357.558594 597.578125 C 357.648438 597.128906 357.78125 596.691406 357.957031 596.265625 C 358.128906 595.84375 358.34375 595.441406 358.601562 595.058594 C 358.855469 594.679688 359.144531 594.324219 359.46875 594 C 359.792969 593.675781 360.144531 593.386719 360.527344 593.132812 C 360.90625 592.878906 361.3125 592.664062 361.734375 592.488281 C 362.15625 592.3125 362.59375 592.179688 363.042969 592.089844 C 363.492188 592 363.949219 591.957031 364.40625 591.957031 L 367.667969 591.957031 C 368.128906 591.957031 368.582031 592 369.03125 592.089844 C 369.480469 592.179688 369.917969 592.3125 370.339844 592.488281 C 370.765625 592.664062 371.167969 592.878906 371.546875 593.132812 C 371.929688 593.386719 372.28125 593.675781 372.605469 594 C 372.929688 594.324219 373.21875 594.679688 373.472656 595.058594 C 373.730469 595.441406 373.945312 595.84375 374.121094 596.265625 C 374.296875 596.691406 374.425781 597.128906 374.515625 597.578125 C 374.605469 598.027344 374.652344 598.480469 374.652344 598.9375 Z M 374.652344 598.9375 " fill-opacity="1" fill-rule="nonzero"/></g><g clip-path="url(#553e1918ad)"><g clip-path="url(#2959a0488e)"><path fill="#a20013" d="M 136.660156 345.855469 L 341.660156 345.855469 L 341.660156 383.746094 L 136.660156 383.746094 Z M 136.660156 345.855469 " fill-opacity="1" fill-rule="nonzero"/></g></g><g clip-path="url(#6303452b98)"><g clip-path="url(#8fc7cf3d76)"><path fill="#c10016" d="M 136.660156 448 L 341.507812 448 L 341.507812 597.402344 L 136.660156 597.402344 Z M 136.660156 448 " fill-opacity="1" fill-rule="nonzero"/></g></g><g clip-path="url(#261bf33687)"><g clip-path="url(#446dffb362)"><path stroke-linecap="butt" transform="matrix(0.75, 0, 0, 0.75, 136.660776, 447.999191)" fill="none" stroke-linejoin="miter" d="M 0.999174 0.00107921 L 272.233579 0.00107921 C 272.499204 0.00107921 272.749205 0.105246 272.936705 0.292746 C 273.124205 0.480246 273.23358 0.735454 273.23358 1.001079 L 273.23358 198.204226 C 273.23358 198.469851 273.124205 198.72506 272.936705 198.91256 C 272.749205 199.10006 272.499204 199.204226 272.233579 199.204226 L 0.999174 199.204226 C 0.733549 199.204226 0.478341 199.10006 0.290841 198.91256 C 0.103341 198.72506 -0.000825983 198.469851 -0.000825983 198.204226 L -0.000825983 1.001079 C -0.000825983 0.735454 0.103341 0.480246 0.290841 0.292746 C 0.478341 0.105246 0.733549 0.00107921 0.999174 0.00107921 Z M 0.999174 0.00107921 " stroke="#a20013" stroke-width="2" stroke-opacity="1" stroke-miterlimit="4"/></g></g><g clip-path="url(#ce1f776052)"><g clip-path="url(#2218980d0d)"><path fill="#c10016" d="M 149.308594 462.683594 L 328.886719 462.683594 L 328.886719 582.71875 L 149.308594 582.71875 Z M 149.308594 462.683594 " fill-opacity="1" fill-rule="nonzero"/></g></g><g clip-path="url(#64379ec136)"><g clip-path="url(#1c63df9174)"><path stroke-linecap="butt" transform="matrix(0.75, 0, 0, 0.75, 149.310376, 462.684862)" fill="none" stroke-linejoin="miter" d="M 0.997624 -0.00169086 L 238.492427 -0.00169086 C 238.758052 -0.00169086 239.008052 0.107684 239.195552 0.295184 C 239.383052 0.482684 239.492427 0.732684 239.492427 0.998309 L 239.492427 159.029567 C 239.492427 159.295192 239.383052 159.5504 239.195552 159.7379 C 239.008052 159.9254 238.758052 160.029567 238.492427 160.029567 L 0.997624 160.029567 C 0.737207 160.029567 0.481999 159.9254 0.294499 159.7379 C 0.106999 159.5504 -0.00237624 159.295192 -0.00237624 159.029567 L -0.00237624 0.998309 C -0.00237624 0.732684 0.106999 0.482684 0.294499 0.295184 C 0.481999 0.107684 0.737207 -0.00169086 0.997624 -0.00169086 Z M 0.997624 -0.00169086 " stroke="#a20013" stroke-width="2" stroke-opacity="1" stroke-miterlimit="4"/></g></g></svg>